# xmcd CD database file
#
# Track frame offsets:
#	150
#	26796
#	42679
#	58749
#	75475
#	103146
#	122735
#	147694
#	171225
#	189300
#
# Disc length: 2815 seconds
#
# Revision: 0
# Processed by: cddbd v1.5.2PL0 Copyright (c) Steve Scherf et al.
# Submitted via: CDex 1.70beta2
#
DISCID=930afd0a
DTITLE=Andrea Pozza Trio feauturing Alan Ferrington - "drop this thing"
DYEAR=2009
DGENRE=Jazz
TTITLE0=Nebulosa
TTITLE1=You Can't get What you Want
TTITLE2=Alice In Wonderland
TTITLE3=Drop This Thins
TTITLE4=Push The Pedal
TTITLE5=Perfect Day
TTITLE6=Like In Nigeria
TTITLE7=And It All Goes Round And Round
TTITLE8=How Do You Call It?
TTITLE9=Sir Pent
EXTD=YEAR: 2009
EXTT0=
EXTT1=
EXTT2=
EXTT3=
EXTT4=
EXTT5=
EXTT6=
EXTT7=
EXTT8=
EXTT9=
PLAYORDER=
